# xmcd
#
# Track frame offsets: 
#        150
#        13057
#        31525
#        44146
#        57838
#        70213
#        89905
#        107033
#        120620
#        134280
#        153817
#        164902
#
# Disc length: 2437 seconds
#
# Revision: 0
# Processed by: cddbd v1.5.2PL0 Copyright (c) Steve Scherf et al.
# Submitted via: ExactAudioCopy v1.2
#
DISCID=a609830c
DTITLE=Derwood Andrews - Tone Poet Smash Hits
DYEAR=2019
DGENRE=Blues
TTITLE0=Coyote
TTITLE1=California Water
TTITLE2=Move in Those Circles
TTITLE3=Killed a Man
TTITLE4=Poverty
TTITLE5=Jump Wagon Blues
TTITLE6=All in the Name
TTITLE7=Oil's on My Shoe
TTITLE8=I Love Your Mess
TTITLE9=Next Generation
TTITLE10=Precious Love
TTITLE11=Give Her the Gun
EXTD=
EXTT0=
EXTT1=
EXTT2=
EXTT3=
EXTT4=
EXTT5=
EXTT6=
EXTT7=
EXTT8=
EXTT9=
EXTT10=
EXTT11=
PLAYORDER=
